<svg viewBox="0 0 28 21"> 
    <g fill="none"> 
        <path fill="#13246B" d="M2.66666667,0 L25.3333333,0 C26.8060927,0 28,1.19390733 28,2.66666667 L28,17.3333333 C28,18.8060927 26.8060927,20 25.3333333,20 L2.66666667,20 C1.19390733,20 0,18.8060927 0,17.3333333 L0,2.66666667 C0,1.19390733 1.19390733,0 2.66666667,0 Z"></path> <path fill="#F6F9FC" d="M0,7.552 L4.664,4.352 L4.66533333,4.35066667 L4.668,4.35066667 L4.668,4.352 L11.9013333,9.31466667 L9.54533333,9.31466667 L4.66666667,5.968 L0,9.16933333 L0,7.552 Z M12,0.126666667 L12,1.744 L7.33466667,4.944 L7.33333333,4.94533333 L7.332,4.944 L0.988,0.592 C1.41269854,0.244311026 1.93507476,0.0374108979 2.48266667,2.36847579e-15 L7.33333333,3.328 L12,0.126666667 Z"></path> <path fill="#E25950" d="M11.8786667,9.33333333 L7,5.98666667 L2.12133333,9.33333333 L0,9.33333333 L0,9.172 L6.99733333,4.37066667 L6.99866667,4.36933333 L7.00133333,4.36933333 L7.00133333,4.37066667 L12,7.8 L12,9.33333333 L11.8786667,9.33333333 Z M5.00133333,4.96266667 L5.00133333,4.964 L4.99866667,4.964 L4.99866667,4.96266667 L0.197333333,1.66933333 C0.369040788,1.25084732 0.644885557,0.883207283 0.998666667,0.601333333 L5,3.34666667 L9.87866667,-1.18423789e-14 L12,-1.18423789e-14 L12,0.161333333 L5.00133333,4.96266667 Z"></path> <polygon fill="#F6F9FC" points="12 6.167 7.5 6.167 7.5 9.333 4.5 9.333 4.5 6.167 0 6.167 0 3.167 4.5 3.167 4.5 0 7.5 0 7.5 3.167 12 3.167"></polygon> <polygon fill="#E25950" points="12 5.331 6.667 5.331 6.667 9.333 5.333 9.333 5.333 5.331 0 5.331 0 4.003 5.333 4.003 5.333 0 6.667 0 6.667 4.003 12 4.003"></polygon> <path fill="#F6F9FC" d="M22.9866667,8.66666667 C22.4343819,8.66666667 21.9866667,8.21895142 21.9866667,7.66666667 C21.9866667,7.11438192 22.4343819,6.66666667 22.9866667,6.66666667 C23.5389514,6.66666667 23.9866667,7.11438192 23.9866667,7.66666667 C23.9866667,8.21895142 23.5389514,8.66666667 22.9866667,8.66666667 Z M21.32,12.6666667 C20.9518102,12.6666667 20.6533333,12.3681898 20.6533333,12 C20.6533333,11.6318102 20.9518102,11.3333333 21.32,11.3333333 C21.6881898,11.3333333 21.9866667,11.6318102 21.9866667,12 C21.9866667,12.3681898 21.6881898,12.6666667 21.32,12.6666667 Z M19.6533333,6 C19.1010486,6 18.6533333,5.55228475 18.6533333,5 C18.6533333,4.44771525 19.1010486,4 19.6533333,4 C20.2056181,4 20.6533333,4.44771525 20.6533333,5 C20.6533333,5.55228475 20.2056181,6 19.6533333,6 Z M15.6533333,10 C15.1010486,10 14.6533333,9.55228475 14.6533333,9 C14.6533333,8.44771525 15.1010486,8 15.6533333,8 C16.2056181,8 16.6533333,8.44771525 16.6533333,9 C16.6533333,9.55228475 16.2056181,10 15.6533333,10 Z M19.6533333,15.3333333 C20.2056181,15.3333333 20.6533333,15.7810486 20.6533333,16.3333333 C20.6533333,16.8856181 20.2056181,17.3333333 19.6533333,17.3333333 C19.1010486,17.3333333 18.6533333,16.8856181 18.6533333,16.3333333 C18.6533333,15.7810486 19.1010486,15.3333333 19.6533333,15.3333333 Z M5.32,16.6973333 L4.408,17.568 C4.33527023,17.6356368 4.22825515,17.6511627 4.13930284,17.6069831 C4.05035053,17.5628034 3.99805603,17.4681537 4.008,17.3693333 L4.09866667,16.0906667 L2.86933333,15.896 C2.77172358,15.8776682 2.6944639,15.8028714 2.67298067,15.7059065 C2.65149743,15.6089416 2.68993433,15.5085114 2.77066667,15.4506667 L3.79733333,14.7253333 L3.17733333,13.6133333 C3.12629659,13.5277239 3.13279571,13.4196133 3.19372073,13.3407345 C3.25464575,13.2618558 3.35760614,13.2282507 3.45333333,13.256 L4.64266667,13.632 L5.1,12.4386667 C5.13307626,12.3447784 5.22178911,12.2819744 5.32133333,12.2819744 C5.42087755,12.2819744 5.5095904,12.3447784 5.54266667,12.4386667 L6,13.632 L7.18933333,13.256 C7.28506052,13.2282507 7.38802091,13.2618558 7.44894594,13.3407345 C7.50987096,13.4196133 7.51637008,13.5277239 7.46533333,13.6133333 L6.84533333,14.7253333 L7.872,15.4506667 C7.95273233,15.5085114 7.99116924,15.6089416 7.969686,15.7059065 C7.94820276,15.8028714 7.87094309,15.8776682 7.77333333,15.896 L6.544,16.0906667 L6.63466667,17.3693333 C6.64461063,17.4681537 6.59231613,17.5628034 6.50336382,17.6069831 C6.41441151,17.6511627 6.30739644,17.6356368 6.23466667,17.568 L5.32,16.6973333 Z">
        </path> 
    </g> 
</svg>